# xmcd
#
# Track frame offsets: 
#        150
#        22415
#        39248
#        65497
#        87417
#        105926
#        124061
#        141070
#        162618
#        179750
#        200237
#
# Disc length: 2922 seconds
#
# Revision: 0
# Processed by: cddbd v1.5.2PL0 Copyright (c) Steve Scherf et al.
# Submitted via: ExactAudioCopy v1.0b5
#
DISCID=a30b680b
DTITLE=Adele - 25
DYEAR=2015
DGENRE=Soul
TTITLE0=Hello
TTITLE1=Send My Love (To Your New Lover)
TTITLE2=I Miss You
TTITLE3=When We Were Young
TTITLE4=Remedy
TTITLE5=Water Under The Bridge
TTITLE6=River Lea
TTITLE7=Love In The Dark
TTITLE8=Million Years Ago
TTITLE9=All I Ask
TTITLE10=Sweetest Devotion
EXTD=
EXTT0=
EXTT1=
EXTT2=
EXTT3=
EXTT4=
EXTT5=
EXTT6=
EXTT7=
EXTT8=
EXTT9=
EXTT10=
PLAYORDER=
